<svg width="20" height="20" viewBox="0 0 20 20" fill="none" xmlns="http://www.w3.org/2000/svg">
<path fill-rule="evenodd" clip-rule="evenodd" d="M14.6852 4.07324C15.2107 4.48973 15.5699 5.03748 15.6955 5.61672C15.8357 6.26333 15.6808 6.91957 15.26 7.46206L8.08434 16.7159C7.72161 17.184 7.17623 17.457 6.5867 17.4649L3.81823 17.4999H3.81043C3.50831 17.4999 3.246 17.2899 3.17762 16.9924L2.55086 14.2677C2.41754 13.6876 2.54913 13.0865 2.91271 12.6184L3.85458 11.403C4.07533 11.1178 4.48394 11.067 4.76615 11.2919C5.04837 11.515 5.09771 11.928 4.8761 12.2132L3.93423 13.4286C3.81476 13.5826 3.77148 13.7795 3.81563 13.9702L4.32379 16.1804L6.57025 16.1524C6.7633 16.1498 6.9425 16.0606 7.06196 15.9066L14.2377 6.6527C14.4212 6.41646 14.4844 6.16271 14.4272 5.89671C14.3658 5.61584 14.1736 5.33497 13.8845 5.1066L12.6811 4.15199C12.2154 3.7845 11.5583 3.5955 11.1099 4.17561L10.162 5.3971L11.6666 6.61683C11.9462 6.84257 11.9912 7.25644 11.767 7.53819C11.6389 7.70094 11.4501 7.78493 11.2597 7.78493C11.1177 7.78493 10.974 7.73769 10.8545 7.64056L9.36123 6.43045L6.90614 9.59703C6.68452 9.88228 6.27678 9.9339 5.9937 9.70816C5.71235 9.48503 5.66301 9.07204 5.88376 8.78679L10.0875 3.36538C10.903 2.31189 12.3314 2.20864 13.4819 3.11951L14.6852 4.07324ZM11.3302 16.1875H16.8507C17.2091 16.1875 17.5 16.4815 17.5 16.8438C17.5 17.206 17.2091 17.5 16.8507 17.5H11.3302C10.971 17.5 10.681 17.206 10.681 16.8438C10.681 16.4815 10.971 16.1875 11.3302 16.1875Z" fill="#200E32"/>
</svg>
