<svg width="17" height="17" viewBox="0 0 17 17" fill="none" xmlns="http://www.w3.org/2000/svg">
<path fill-rule="evenodd" clip-rule="evenodd" d="M3.1875 3.54169H2.47917C2.28357 3.54169 2.125 3.70025 2.125 3.89585V4.60419C2.125 4.79979 2.28357 4.95835 2.47917 4.95835H3.1875C3.3831 4.95835 3.54167 4.79979 3.54167 4.60419V3.89585C3.54167 3.70025 3.3831 3.54169 3.1875 3.54169ZM5.3125 3.54169H14.5208C14.7164 3.54169 14.875 3.70025 14.875 3.89585V4.60419C14.875 4.79979 14.7164 4.95835 14.5208 4.95835H5.3125C5.1169 4.95835 4.95833 4.79979 4.95833 4.60419V3.89585C4.95833 3.70025 5.1169 3.54169 5.3125 3.54169ZM2.125 8.14585V8.85419C2.125 9.04979 2.28357 9.20835 2.47917 9.20835H3.1875C3.3831 9.20835 3.54167 9.04979 3.54167 8.85419V8.14585C3.54167 7.95025 3.3831 7.79169 3.1875 7.79169H2.47917C2.28357 7.79169 2.125 7.95025 2.125 8.14585ZM5.3125 7.79169H14.5208C14.7164 7.79169 14.875 7.95025 14.875 8.14585V8.85419C14.875 9.04979 14.7164 9.20835 14.5208 9.20835H5.3125C5.1169 9.20835 4.95833 9.04979 4.95833 8.85419V8.14585C4.95833 7.95025 5.1169 7.79169 5.3125 7.79169ZM2.125 12.3959V13.1042C2.125 13.2998 2.28357 13.4584 2.47917 13.4584H3.1875C3.3831 13.4584 3.54167 13.2998 3.54167 13.1042V12.3959C3.54167 12.2003 3.3831 12.0417 3.1875 12.0417H2.47917C2.28357 12.0417 2.125 12.2003 2.125 12.3959ZM5.3125 12.0417H14.5208C14.7164 12.0417 14.875 12.2003 14.875 12.3959V13.1042C14.875 13.2998 14.7164 13.4584 14.5208 13.4584H5.3125C5.1169 13.4584 4.95833 13.2998 4.95833 13.1042V12.3959C4.95833 12.2003 5.1169 12.0417 5.3125 12.0417Z" fill="url(#paint0_linear_158_4524)"/>
<defs>
<linearGradient id="paint0_linear_158_4524" x1="2.125" y1="8.50002" x2="14.875" y2="8.50002" gradientUnits="userSpaceOnUse">
<stop stop-color="#07BD89"/>
<stop offset="0.504576" stop-color="#006E8C"/>
<stop offset="0.998914" stop-color="#002E32"/>
</linearGradient>
</defs>
</svg>
