<svg width="56" height="56" viewBox="0 0 56 56" fill="none" xmlns="http://www.w3.org/2000/svg">
<g filter="url(#filter0_d_156_4867)">
<circle cx="28" cy="26" r="18" fill="url(#paint0_linear_156_4867)"/>
</g>
<path fill-rule="evenodd" clip-rule="evenodd" d="M23.1875 20.5417H22.4792C22.2836 20.5417 22.125 20.7003 22.125 20.8959V21.6042C22.125 21.7998 22.2836 21.9584 22.4792 21.9584H23.1875C23.3831 21.9584 23.5417 21.7998 23.5417 21.6042V20.8959C23.5417 20.7003 23.3831 20.5417 23.1875 20.5417ZM25.3125 20.5417H34.5208C34.7164 20.5417 34.875 20.7003 34.875 20.8959V21.6042C34.875 21.7998 34.7164 21.9584 34.5208 21.9584H25.3125C25.1169 21.9584 24.9583 21.7998 24.9583 21.6042V20.8959C24.9583 20.7003 25.1169 20.5417 25.3125 20.5417ZM22.125 25.1459V25.8542C22.125 26.0498 22.2836 26.2084 22.4792 26.2084H23.1875C23.3831 26.2084 23.5417 26.0498 23.5417 25.8542V25.1459C23.5417 24.9503 23.3831 24.7917 23.1875 24.7917H22.4792C22.2836 24.7917 22.125 24.9503 22.125 25.1459ZM25.3125 24.7917H34.5208C34.7164 24.7917 34.875 24.9503 34.875 25.1459V25.8542C34.875 26.0498 34.7164 26.2084 34.5208 26.2084H25.3125C25.1169 26.2084 24.9583 26.0498 24.9583 25.8542V25.1459C24.9583 24.9503 25.1169 24.7917 25.3125 24.7917ZM22.125 29.3959V30.1042C22.125 30.2998 22.2836 30.4584 22.4792 30.4584H23.1875C23.3831 30.4584 23.5417 30.2998 23.5417 30.1042V29.3959C23.5417 29.2003 23.3831 29.0417 23.1875 29.0417H22.4792C22.2836 29.0417 22.125 29.2003 22.125 29.3959ZM25.3125 29.0417H34.5208C34.7164 29.0417 34.875 29.2003 34.875 29.3959V30.1042C34.875 30.2998 34.7164 30.4584 34.5208 30.4584H25.3125C25.1169 30.4584 24.9583 30.2998 24.9583 30.1042V29.3959C24.9583 29.2003 25.1169 29.0417 25.3125 29.0417Z" fill="white"/>
<defs>
<filter id="filter0_d_156_4867" x="0" y="0" width="56" height="56" filterUnits="userSpaceOnUse" color-interpolation-filters="sRGB">
<feFlood flood-opacity="0" result="BackgroundImageFix"/>
<feColorMatrix in="SourceAlpha" type="matrix" values="0 0 0 0 0 0 0 0 0 0 0 0 0 0 0 0 0 0 127 0" result="hardAlpha"/>
<feOffset dy="2"/>
<feGaussianBlur stdDeviation="5"/>
<feColorMatrix type="matrix" values="0 0 0 0 0 0 0 0 0 0 0 0 0 0 0 0 0 0 0.05 0"/>
<feBlend mode="normal" in2="BackgroundImageFix" result="effect1_dropShadow_156_4867"/>
<feBlend mode="normal" in="SourceGraphic" in2="effect1_dropShadow_156_4867" result="shape"/>
</filter>
<linearGradient id="paint0_linear_156_4867" x1="10" y1="26" x2="46" y2="26" gradientUnits="userSpaceOnUse">
<stop stop-color="#07BD89"/>
<stop offset="0.504576" stop-color="#006E8C"/>
<stop offset="0.998914" stop-color="#002E32"/>
</linearGradient>
</defs>
</svg>
