<?xml version="1.0" standalone="no"?>
<!DOCTYPE svg PUBLIC "-//W3C//DTD SVG 20010904//EN"
 "http://www.w3.org/TR/2001/REC-SVG-20010904/DTD/svg10.dtd">
<svg version="1.0" xmlns="http://www.w3.org/2000/svg"
 width="512.000000pt" height="512.000000pt" viewBox="0 0 512.000000 512.000000"
 preserveAspectRatio="xMidYMid meet">

<g transform="translate(0.000000,512.000000) scale(0.100000,-0.100000)"
fill="#000000" stroke="none">
<path d="M2352 4949 c-305 -27 -571 -103 -857 -244 -475 -234 -846 -605 -1080
-1080 -152 -307 -220 -562 -247 -913 -23 -309 28 -670 137 -969 51 -139 173
-381 251 -498 241 -363 555 -641 939 -830 176 -87 296 -132 460 -174 579 -148
1161 -86 1685 180 377 190 688 468 924 824 78 117 200 359 251 498 109 299
160 660 137 969 -27 351 -95 606 -247 913 -436 883 -1374 1411 -2353 1324z
m548 -263 c842 -144 1511 -745 1734 -1558 59 -217 71 -313 70 -578 -1 -265
-15 -367 -79 -589 -208 -723 -789 -1290 -1518 -1481 -204 -54 -300 -65 -552
-65 -259 1 -372 16 -594 80 -727 209 -1300 801 -1486 1534 -50 198 -59 281
-59 531 0 250 9 333 59 531 94 368 293 717 565 989 355 355 787 559 1320 624
80 10 449 -3 540 -18z"/>
<path d="M2365 4450 c-44 -6 -111 -15 -150 -22 l-70 -13 0 -1855 0 -1855 100
-18 c141 -27 488 -27 630 0 l100 18 0 1855 0 1855 -100 17 c-119 21 -398 31
-510 18z"/>
<path d="M1820 4306 c-130 -57 -200 -94 -305 -163 -126 -83 -318 -245 -304
-257 24 -20 702 -466 705 -463 2 2 3 211 2 464 l-3 460 -95 -41z"/>
<path d="M3200 3884 c0 -255 2 -464 5 -464 4 0 691 455 704 466 13 12 -181
176 -309 262 -82 54 -239 136 -337 176 l-63 25 0 -465z"/>
<path d="M1037 3693 c-24 -32 -59 -82 -77 -111 -28 -45 -31 -56 -19 -67 8 -7
115 -83 239 -169 l225 -156 260 0 c149 0 255 4 250 9 -14 13 -824 551 -829
551 -3 0 -25 -26 -49 -57z"/>
<path d="M3617 3476 c-224 -150 -410 -276 -414 -279 -3 -4 110 -7 253 -7 l259
0 225 156 c124 85 231 161 239 169 12 11 9 21 -19 67 -41 66 -119 168 -128
167 -4 0 -190 -123 -415 -273z"/>
<path d="M831 3342 c-5 -9 -20 -45 -34 -79 l-26 -63 147 0 c80 0 142 4 137 8
-6 5 -56 41 -112 80 -90 62 -104 69 -112 54z"/>
<path d="M4185 3293 c-49 -35 -99 -70 -110 -78 -18 -12 -2 -14 127 -14 l147
-1 -30 72 c-16 40 -33 76 -37 79 -4 3 -47 -23 -97 -58z"/>
<path d="M707 2973 c-3 -5 -13 -57 -23 -118 -25 -149 -24 -465 3 -610 l18
-100 613 -3 612 -2 0 420 0 420 -609 0 c-336 0 -612 -3 -614 -7z"/>
<path d="M3190 2560 l0 -420 609 0 c572 0 610 1 615 18 44 141 54 527 19 717
l-18 100 -612 3 -613 2 0 -420z"/>
<path d="M1170 1766 c-148 -103 -235 -169 -234 -179 2 -18 77 -134 121 -186
l29 -34 409 273 c226 150 414 276 419 281 6 5 -100 9 -250 9 l-259 0 -235
-164z"/>
<path d="M3206 1921 c5 -5 193 -131 419 -281 l409 -273 29 34 c44 53 119 169
121 187 1 10 -82 73 -234 179 l-235 163 -259 0 c-150 0 -256 -4 -250 -9z"/>
<path d="M797 1858 c44 -109 30 -106 146 -26 56 39 106 75 112 80 5 4 -57 8
-137 8 l-147 0 26 -62z"/>
<path d="M4066 1912 c5 -5 55 -41 111 -80 116 -80 102 -83 146 26 l26 62 -147
0 c-80 0 -142 -4 -136 -8z"/>
<path d="M1570 1474 c-184 -124 -342 -229 -350 -234 -19 -11 -3 -30 115 -128
153 -128 341 -241 523 -315 l62 -26 0 465 c0 255 -3 464 -7 463 -5 0 -159
-101 -343 -225z"/>
<path d="M3200 1236 l0 -465 63 26 c108 44 255 121 347 183 129 87 312 242
299 254 -13 11 -700 466 -704 466 -3 0 -5 -209 -5 -464z"/>
</g>
</svg>
